<?xml version="1.0" standalone="no"?>
<!DOCTYPE svg PUBLIC "-//W3C//DTD SVG 20010904//EN"
 "http://www.w3.org/TR/2001/REC-SVG-20010904/DTD/svg10.dtd">
<svg version="1.0" xmlns="http://www.w3.org/2000/svg"
 width="700.000000pt" height="700.000000pt" viewBox="0 0 700.000000 700.000000"
 preserveAspectRatio="xMidYMid meet">
<metadata>
Created by potrace 1.11, written by Peter Selinger 2001-2013
</metadata>
<g transform="translate(0.000000,700.000000) scale(0.100000,-0.100000)"
fill="#000000" stroke="none">
<path d="M3278 6996 c-1 -2 -39 -6 -83 -10 -89 -7 -144 -13 -225 -26 -30 -5
-73 -12 -95 -15 -23 -3 -50 -7 -60 -10 -11 -3 -49 -12 -85 -20 -36 -9 -69 -17
-75 -18 -5 -2 -26 -7 -45 -11 -43 -10 -169 -49 -275 -86 -784 -273 -1469 -848
-1882 -1580 -156 -276 -284 -597 -349 -870 -50 -214 -72 -345 -91 -550 -16
-165 -9 -570 12 -714 3 -17 7 -49 9 -71 10 -83 18 -131 26 -165 5 -19 12 -48
14 -65 53 -294 197 -679 372 -992 205 -365 465 -680 810 -978 228 -197 603
-424 907 -549 160 -66 433 -153 571 -182 97 -21 215 -41 276 -49 25 -3 56 -7
69 -10 163 -31 695 -26 908 9 21 4 52 8 68 10 70 9 209 39 332 71 1059 281
1921 1032 2344 2043 50 118 124 333 150 437 20 78 24 91 34 138 13 56 55 298
61 352 4 33 9 76 11 95 8 70 10 517 3 595 -15 159 -21 210 -25 225 -2 8 -7 35
-10 60 -8 60 -40 213 -70 330 -71 280 -207 608 -356 861 -54 93 -167 269 -178
279 -4 3 -33 41 -66 85 -32 44 -69 91 -81 105 -12 14 -41 48 -64 75 -126 149
-341 353 -490 464 -41 31 -77 58 -80 62 -12 13 -201 139 -280 186 -368 220
-855 397 -1230 448 -19 3 -46 7 -60 10 -13 2 -52 7 -86 11 -33 3 -74 8 -90 10
-33 5 -540 14 -546 10z m505 -420 c26 -3 68 -8 95 -11 87 -10 236 -37 312 -55
41 -11 86 -21 100 -23 66 -12 401 -131 468 -166 9 -5 71 -36 138 -69 220 -110
421 -243 624 -417 83 -71 312 -308 381 -395 393 -493 621 -1059 676 -1675 14
-159 8 -530 -11 -630 -2 -11 -7 -46 -11 -79 -9 -78 -12 -92 -41 -226 -109
-490 -340 -951 -667 -1335 -74 -86 -271 -282 -347 -346 -36 -30 -67 -56 -70
-59 -8 -9 -152 -114 -200 -147 -163 -111 -527 -303 -572 -303 -8 0 -18 -4 -24
-9 -14 -15 -267 -97 -399 -129 -103 -26 -193 -43 -355 -67 -180 -26 -602 -26
-762 0 -13 2 -41 6 -63 10 -372 54 -715 171 -1055 357 -167 92 -372 235 -525
368 -87 74 -304 300 -376 390 -88 109 -207 282 -268 388 -49 85 -171 327 -171
340 0 4 -9 27 -20 50 -24 50 -100 275 -129 382 -21 80 -55 253 -66 333 -4 27
-8 57 -10 67 -26 134 -26 556 0 760 35 282 127 618 232 850 114 253 234 454
392 660 89 115 115 145 266 295 122 122 172 168 270 245 22 17 48 38 58 46 38
31 225 153 312 203 233 134 499 243 750 307 112 29 110 29 220 49 155 28 169
30 310 41 50 4 91 8 93 9 6 5 398 -3 445 -9z"/>
<path d="M1825 4320 c-234 -35 -231 -378 3 -405 20 -2 80 -7 132 -10 232 -14
475 -96 677 -228 395 -258 634 -682 656 -1162 6 -126 36 -184 115 -228 40 -23
124 -25 172 -5 50 22 99 76 114 127 13 47 14 140 1 258 -30 284 -137 582 -292
818 -276 418 -693 701 -1183 800 -66 14 -162 28 -213 31 -51 3 -103 7 -117 8
-14 1 -43 -1 -65 -4z"/>
<path d="M5067 4324 c-1 -1 -33 -5 -72 -8 -92 -9 -144 -15 -175 -21 -14 -3
-34 -7 -45 -9 -364 -71 -738 -284 -993 -568 l-24 -26 49 -84 c53 -89 112 -209
134 -270 7 -21 18 -38 24 -38 5 1 27 24 48 53 142 196 388 378 631 466 118 43
154 53 264 70 112 17 134 20 207 22 147 3 235 82 235 209 0 118 -82 195 -214
203 -36 2 -67 3 -69 1z"/>
</g>
</svg>
